<svg xmlns="http://www.w3.org/2000/svg" viewBox="0 0 1152 432" width="1152" height="432" shape-rendering="crispEdges" style="image-rendering:pixelated;display:block;">
<defs>
  <!-- Scanline CRT overlay -->
  <pattern id="scan" width="2" height="4" patternUnits="userSpaceOnUse">
    <rect width="2" height="2" fill="rgba(0,0,0,0.07)"/>
  </pattern>
  <!-- Ice lane lines -->
  <pattern id="icelines" width="496" height="40" patternUnits="userSpaceOnUse" x="8" y="72">
    <rect width="496" height="2" y="38" fill="rgba(100,180,255,0.18)"/>
  </pattern>
  <!-- Dark panel texture -->
  <pattern id="darktex" width="8" height="8" patternUnits="userSpaceOnUse">
    <rect width="4" height="4" fill="rgba(255,255,255,0.025)"/>
    <rect x="4" y="4" width="4" height="4" fill="rgba(255,255,255,0.025)"/>
  </pattern>
  <!-- Clip for left panel -->
  <clipPath id="lpclip"><rect x="8" y="72" width="496" height="352"/></clipPath>
  <!-- Clip for right panel -->
  <clipPath id="rpclip"><rect x="648" y="72" width="496" height="352"/></clipPath>
</defs>

<!-- ===================== OUTER FRAME ===================== -->
<rect x="0" y="0" width="1152" height="432" fill="#080810"/>
<!-- Outer gold border line -->
<rect x="2" y="2" width="1148" height="428" fill="#B8960E"/>
<!-- Inner dark frame -->
<rect x="4" y="4" width="1144" height="424" fill="#080810"/>
<!-- Inner gold line -->
<rect x="6" y="6" width="1140" height="420" fill="#C8A820"/>
<!-- Frame fill -->
<rect x="8" y="8" width="1136" height="416" fill="#080810"/>

<!-- ===================== LEFT PANEL (Blue Team) ===================== -->
<rect x="8" y="72" width="496" height="352" fill="#003580"/>
<!-- Ice lane lines (horizontal, subtle) -->
<rect x="8" y="72" width="496" height="352" fill="url(#icelines)"/>
<!-- Vertical ice lane dividers (very faint) -->
<rect x="120" y="72" width="2" height="352" fill="rgba(150,210,255,0.08)"/>
<rect x="240" y="72" width="2" height="352" fill="rgba(150,210,255,0.08)"/>
<rect x="360" y="72" width="2" height="352" fill="rgba(150,210,255,0.08)"/>
<!-- Top edge highlight -->
<rect x="8" y="72" width="496" height="4" fill="#0044AA"/>
<!-- Left edge highlight -->
<rect x="8" y="72" width="4" height="352" fill="#0044AA"/>
<!-- Gold inner border accent -->
<rect x="8" y="72" width="496" height="2" fill="#C8A820"/>

<!-- ===================== RIGHT PANEL (Dark Team) ===================== -->
<rect x="648" y="72" width="496" height="352" fill="#10101E"/>
<rect x="648" y="72" width="496" height="352" fill="url(#darktex)"/>
<!-- Top edge accent -->
<rect x="648" y="72" width="496" height="2" fill="#C8A820"/>
<!-- Right edge -->
<rect x="1140" y="72" width="4" height="352" fill="#1A1A30"/>
<!-- Gold inner border accent -->
<rect x="648" y="72" width="496" height="4" fill="#1E1E34"/>

<!-- ===================== CURLING HOUSE RINGS — LEFT PANEL (watermark) ===================== -->
<!-- House center: x=240, y=360 — drawn back to front, alternating rings -->
<!-- Outer ring r≈88 (red) -->
<g clip-path="url(#lpclip)" opacity="0.17">
  <rect x="208" y="280" width="64" height="8" fill="#CC2200"/>
  <rect x="184" y="288" width="112" height="8" fill="#CC2200"/>
  <rect x="168" y="296" width="144" height="8" fill="#CC2200"/>
  <rect x="160" y="304" width="160" height="56" fill="#CC2200"/>
  <rect x="168" y="360" width="144" height="8" fill="#CC2200"/>
  <rect x="184" y="368" width="112" height="8" fill="#CC2200"/>
  <rect x="208" y="376" width="64" height="8" fill="#CC2200"/>
  <!-- 2nd ring r≈64 (white) -->
  <rect x="220" y="296" width="40" height="8" fill="#EEEEFF"/>
  <rect x="200" y="304" width="80" height="8" fill="#EEEEFF"/>
  <rect x="184" y="312" width="112" height="48" fill="#EEEEFF"/>
  <rect x="200" y="360" width="80" height="8" fill="#EEEEFF"/>
  <rect x="220" y="368" width="40" height="8" fill="#EEEEFF"/>
  <!-- 3rd ring r≈40 (blue) -->
  <rect x="228" y="304" width="24" height="8" fill="#0033AA"/>
  <rect x="216" y="312" width="48" height="8" fill="#0033AA"/>
  <rect x="208" y="320" width="64" height="32" fill="#0033AA"/>
  <rect x="216" y="352" width="48" height="8" fill="#0033AA"/>
  <rect x="228" y="360" width="24" height="8" fill="#0033AA"/>
  <!-- Inner ring r≈20 (white) -->
  <rect x="232" y="316" width="16" height="8" fill="#EEEEFF"/>
  <rect x="224" y="324" width="32" height="16" fill="#EEEEFF"/>
  <rect x="232" y="340" width="16" height="8" fill="#EEEEFF"/>
  <!-- Button (red) -->
  <rect x="232" y="328" width="16" height="16" fill="#CC0000"/>
  <rect x="236" y="324" width="8" height="24" fill="#CC0000"/>
</g>

<!-- ===================== CURLING HOUSE RINGS — RIGHT PANEL (watermark) ===================== -->
<g clip-path="url(#rpclip)" opacity="0.17">
  <rect x="888" y="280" width="64" height="8" fill="#CCAA00"/>
  <rect x="864" y="288" width="112" height="8" fill="#CCAA00"/>
  <rect x="848" y="296" width="144" height="8" fill="#CCAA00"/>
  <rect x="840" y="304" width="160" height="56" fill="#CCAA00"/>
  <rect x="848" y="360" width="144" height="8" fill="#CCAA00"/>
  <rect x="864" y="368" width="112" height="8" fill="#CCAA00"/>
  <rect x="888" y="376" width="64" height="8" fill="#CCAA00"/>
  <rect x="900" y="296" width="40" height="8" fill="#EEEEFF"/>
  <rect x="880" y="304" width="80" height="8" fill="#EEEEFF"/>
  <rect x="864" y="312" width="112" height="48" fill="#EEEEFF"/>
  <rect x="880" y="360" width="80" height="8" fill="#EEEEFF"/>
  <rect x="900" y="368" width="40" height="8" fill="#EEEEFF"/>
  <rect x="908" y="304" width="24" height="8" fill="#222244"/>
  <rect x="896" y="312" width="48" height="8" fill="#222244"/>
  <rect x="888" y="320" width="64" height="32" fill="#222244"/>
  <rect x="896" y="352" width="48" height="8" fill="#222244"/>
  <rect x="908" y="360" width="24" height="8" fill="#222244"/>
  <rect x="912" y="316" width="16" height="8" fill="#EEEEFF"/>
  <rect x="904" y="324" width="32" height="16" fill="#EEEEFF"/>
  <rect x="912" y="340" width="16" height="8" fill="#EEEEFF"/>
  <rect x="908" y="326" width="24" height="20" fill="#CCAA00"/>
  <rect x="912" y="322" width="16" height="28" fill="#CCAA00"/>
</g>

<!-- ===================== RED TOP BAR ===================== -->
<rect x="8" y="8" width="1136" height="64" fill="#BB0000"/>
<!-- Top highlight -->
<rect x="8" y="8" width="1136" height="6" fill="#DD2222"/>
<!-- Athletic diagonal cut shadows (left) -->
<rect x="8" y="8" width="56" height="64" fill="#AA0000"/>
<rect x="56" y="8" width="8" height="64" fill="#990000"/>
<!-- Athletic diagonal cut shadows (right) -->
<rect x="1088" y="8" width="56" height="64" fill="#AA0000"/>
<rect x="1088" y="8" width="8" height="64" fill="#990000"/>
<!-- Gold accent lines -->
<rect x="8" y="58" width="1136" height="4" fill="#C8A820"/>
<rect x="8" y="64" width="1136" height="4" fill="#A07800"/>
<!-- Top gold accent -->
<rect x="8" y="8" width="1136" height="2" fill="#C8A820"/>

<!-- ===== PIXEL ART BROOM ICON in red bar (left side) ===== -->
<!-- Broom handle (diagonal) -->
<rect x="80" y="14" width="8" height="4" fill="#DDCC88"/>
<rect x="84" y="18" width="8" height="4" fill="#DDCC88"/>
<rect x="88" y="22" width="8" height="4" fill="#DDCC88"/>
<rect x="92" y="26" width="8" height="4" fill="#DDCC88"/>
<rect x="96" y="30" width="8" height="4" fill="#DDCC88"/>
<rect x="100" y="34" width="8" height="4" fill="#DDCC88"/>
<rect x="104" y="38" width="8" height="4" fill="#DDCC88"/>
<!-- Broom head (sweep) -->
<rect x="60" y="44" width="56" height="6" fill="#EEDDAA"/>
<rect x="56" y="50" width="64" height="4" fill="#CCBB88"/>
<rect x="60" y="54" width="56" height="4" fill="#BBAA77"/>
<!-- Broom bristles -->
<rect x="60" y="58" width="4" height="6" fill="#AABB99"/>
<rect x="68" y="58" width="4" height="8" fill="#AABB99"/>
<rect x="76" y="58" width="4" height="6" fill="#AABB99"/>
<rect x="84" y="58" width="4" height="8" fill="#AABB99"/>
<rect x="92" y="58" width="4" height="6" fill="#AABB99"/>
<rect x="100" y="58" width="4" height="8" fill="#AABB99"/>
<rect x="108" y="58" width="4" height="6" fill="#AABB99"/>

<!-- ===== PIXEL ART BROOM ICON (right side, mirrored) ===== -->
<rect x="1064" y="14" width="8" height="4" fill="#DDCC88"/>
<rect x="1060" y="18" width="8" height="4" fill="#DDCC88"/>
<rect x="1056" y="22" width="8" height="4" fill="#DDCC88"/>
<rect x="1052" y="26" width="8" height="4" fill="#DDCC88"/>
<rect x="1048" y="30" width="8" height="4" fill="#DDCC88"/>
<rect x="1044" y="34" width="8" height="4" fill="#DDCC88"/>
<rect x="1040" y="38" width="8" height="4" fill="#DDCC88"/>
<!-- Broom head -->
<rect x="1036" y="44" width="56" height="6" fill="#EEDDAA"/>
<rect x="1032" y="50" width="64" height="4" fill="#CCBB88"/>
<rect x="1036" y="54" width="56" height="4" fill="#BBAA77"/>
<!-- Bristles -->
<rect x="1036" y="58" width="4" height="6" fill="#AABB99"/>
<rect x="1044" y="58" width="4" height="8" fill="#AABB99"/>
<rect x="1052" y="58" width="4" height="6" fill="#AABB99"/>
<rect x="1060" y="58" width="4" height="8" fill="#AABB99"/>
<rect x="1068" y="58" width="4" height="6" fill="#AABB99"/>
<rect x="1076" y="58" width="4" height="8" fill="#AABB99"/>
<rect x="1084" y="58" width="4" height="6" fill="#AABB99"/>

<!-- ===================== CENTER COLUMN — GOLD FLANKING LINES ===================== -->
<!-- Left gold flank -->
<rect x="500" y="0" width="4" height="432" fill="#C8A820"/>
<!-- Right gold flank -->
<rect x="648" y="0" width="4" height="432" fill="#C8A820"/>
<!-- Dark inner borders of column -->
<rect x="504" y="0" width="4" height="432" fill="#111111"/>
<rect x="644" y="0" width="4" height="432" fill="#111111"/>

<!-- Column body — upper half -->
<rect x="508" y="20" width="136" height="226" fill="#F4F4F0"/>
<!-- Column body — lower half -->
<rect x="508" y="252" width="136" height="176" fill="#F4F4F0"/>
<!-- Column left highlight -->
<rect x="508" y="20" width="4" height="226" fill="#FFFFFF"/>
<rect x="508" y="252" width="4" height="176" fill="#FFFFFF"/>
<!-- Column right shadow -->
<rect x="640" y="20" width="4" height="226" fill="#D8D8D4"/>
<rect x="640" y="252" width="4" height="176" fill="#D8D8D4"/>
<!-- Column bottom shadow -->
<rect x="508" y="424" width="136" height="4" fill="#D8D8D4"/>
<!-- Column top highlight -->
<rect x="508" y="20" width="136" height="4" fill="#FFFFFF"/>

<!-- Subtle center divider line in column -->
<rect x="574" y="20" width="2" height="226" fill="#E4E4E0"/>
<rect x="574" y="252" width="2" height="176" fill="#E4E4E0"/>

<!-- ===================== END CAP (top white section) ===================== -->
<!-- Gold outer frame for cap -->
<rect x="496" y="0" width="160" height="24" fill="#C8A820"/>
<!-- Cap black border -->
<rect x="500" y="0" width="152" height="22" fill="#111111"/>
<!-- Cap white fill -->
<rect x="504" y="0" width="144" height="20" fill="#FEFEFE"/>
<!-- Cap top highlight -->
<rect x="504" y="0" width="144" height="4" fill="#FFFFFF"/>
<!-- Cap bottom gold line -->
<rect x="504" y="16" width="144" height="4" fill="#C8A820"/>
<!-- Cap pixel corner cuts -->
<rect x="500" y="0" width="4" height="4" fill="#C8A820"/>
<rect x="648" y="0" width="4" height="4" fill="#C8A820"/>

<!-- ===================== MIDLINE DIVIDER ===================== -->
<!-- Left side -->
<rect x="8" y="244" width="492" height="2" fill="#C8A820"/>
<rect x="8" y="246" width="492" height="6" fill="#060610"/>
<rect x="8" y="252" width="492" height="2" fill="#C8A820"/>
<!-- Right side -->
<rect x="648" y="244" width="496" height="2" fill="#C8A820"/>
<rect x="648" y="246" width="496" height="6" fill="#060610"/>
<rect x="648" y="252" width="496" height="2" fill="#C8A820"/>
<!-- Center column midline -->
<rect x="504" y="246" width="144" height="6" fill="#060610"/>
<rect x="508" y="244" width="136" height="2" fill="#C8A820"/>
<rect x="508" y="252" width="136" height="2" fill="#C8A820"/>

<!-- ===================== PIXEL ART CURLING STONE — LEFT PANEL (RED) ===================== -->
<!-- Stone positioned bx=56, by=100 (stone spans 56–136, 100–172) -->
<!-- Handle top -->
<rect x="88" y="100" width="16" height="4" fill="#1A0500"/>
<!-- Handle mid -->
<rect x="84" y="104" width="24" height="4" fill="#2A0800"/>
<!-- Collar -->
<rect x="80" y="108" width="32" height="8" fill="#3A1000"/>
<!-- Collar highlight top -->
<rect x="80" y="108" width="32" height="2" fill="#553322"/>

<!-- Stone outer body (dark border, 4px wide) -->
<rect x="76" y="116" width="40" height="4" fill="#770000"/>
<rect x="68" y="120" width="56" height="4" fill="#770000"/>
<rect x="64" y="124" width="64" height="4" fill="#770000"/>
<rect x="60" y="128" width="72" height="4" fill="#770000"/>
<rect x="56" y="132" width="80" height="20" fill="#770000"/>
<rect x="60" y="152" width="72" height="4" fill="#770000"/>
<rect x="64" y="156" width="64" height="4" fill="#770000"/>
<rect x="68" y="160" width="56" height="4" fill="#770000"/>
<rect x="76" y="164" width="40" height="4" fill="#770000"/>
<rect x="84" y="168" width="24" height="4" fill="#770000"/>

<!-- Stone main body (red) -->
<rect x="80" y="116" width="32" height="4" fill="#CC1100"/>
<rect x="72" y="120" width="48" height="4" fill="#CC1100"/>
<rect x="68" y="124" width="56" height="4" fill="#CC1100"/>
<rect x="64" y="128" width="64" height="24" fill="#CC1100"/>
<rect x="68" y="152" width="56" height="4" fill="#CC1100"/>
<rect x="72" y="156" width="48" height="4" fill="#CC1100"/>
<rect x="80" y="160" width="32" height="4" fill="#CC1100"/>
<rect x="88" y="164" width="16" height="4" fill="#CC1100"/>

<!-- Inner lighter ring (bright red) -->
<rect x="80" y="124" width="32" height="4" fill="#EE3322"/>
<rect x="72" y="128" width="48" height="4" fill="#EE3322"/>
<rect x="68" y="132" width="56" height="16" fill="#EE3322"/>
<rect x="72" y="148" width="48" height="4" fill="#EE3322"/>
<rect x="80" y="152" width="32" height="4" fill="#EE3322"/>

<!-- Center button (dark red) -->
<rect x="84" y="136" width="24" height="12" fill="#880000"/>
<rect x="88" y="132" width="16" height="20" fill="#880000"/>
<!-- Button highlight -->
<rect x="80" y="132" width="8" height="4" fill="#FF5544" opacity="0.5"/>

<!-- Top-left shine highlight -->
<rect x="68" y="120" width="8" height="4" fill="#FF6655" opacity="0.45"/>
<rect x="64" y="124" width="8" height="4" fill="#FF6655" opacity="0.3"/>
<rect x="60" y="128" width="8" height="4" fill="#FF6655" opacity="0.2"/>

<!-- ===================== PIXEL ART CURLING STONE — RIGHT PANEL (YELLOW/GOLD) ===================== -->
<!-- Stone at bx=1016, by=100 (spans 1016–1096) -->
<!-- Handle top -->
<rect x="1048" y="100" width="16" height="4" fill="#1A1200"/>
<!-- Handle mid -->
<rect x="1044" y="104" width="24" height="4" fill="#2A1E00"/>
<!-- Collar -->
<rect x="1040" y="108" width="32" height="8" fill="#3A2A00"/>
<rect x="1040" y="108" width="32" height="2" fill="#554433"/>

<!-- Stone outer body (dark gold border) -->
<rect x="1036" y="116" width="40" height="4" fill="#776600"/>
<rect x="1028" y="120" width="56" height="4" fill="#776600"/>
<rect x="1024" y="124" width="64" height="4" fill="#776600"/>
<rect x="1020" y="128" width="72" height="4" fill="#776600"/>
<rect x="1016" y="132" width="80" height="20" fill="#776600"/>
<rect x="1020" y="152" width="72" height="4" fill="#776600"/>
<rect x="1024" y="156" width="64" height="4" fill="#776600"/>
<rect x="1028" y="160" width="56" height="4" fill="#776600"/>
<rect x="1036" y="164" width="40" height="4" fill="#776600"/>
<rect x="1044" y="168" width="24" height="4" fill="#776600"/>

<!-- Stone main body (gold) -->
<rect x="1040" y="116" width="32" height="4" fill="#CCAA00"/>
<rect x="1032" y="120" width="48" height="4" fill="#CCAA00"/>
<rect x="1028" y="124" width="56" height="4" fill="#CCAA00"/>
<rect x="1024" y="128" width="64" height="24" fill="#CCAA00"/>
<rect x="1028" y="152" width="56" height="4" fill="#CCAA00"/>
<rect x="1032" y="156" width="48" height="4" fill="#CCAA00"/>
<rect x="1040" y="160" width="32" height="4" fill="#CCAA00"/>
<rect x="1048" y="164" width="16" height="4" fill="#CCAA00"/>

<!-- Inner lighter ring (bright gold) -->
<rect x="1040" y="124" width="32" height="4" fill="#EEDD33"/>
<rect x="1032" y="128" width="48" height="4" fill="#EEDD33"/>
<rect x="1028" y="132" width="56" height="16" fill="#EEDD33"/>
<rect x="1032" y="148" width="48" height="4" fill="#EEDD33"/>
<rect x="1040" y="152" width="32" height="4" fill="#EEDD33"/>

<!-- Center button (dark gold) -->
<rect x="1044" y="136" width="24" height="12" fill="#886600"/>
<rect x="1048" y="132" width="16" height="20" fill="#886600"/>
<!-- Button highlight -->
<rect x="1040" y="132" width="8" height="4" fill="#FFEE66" opacity="0.5"/>

<!-- Top-left shine highlight -->
<rect x="1028" y="120" width="8" height="4" fill="#FFEE55" opacity="0.45"/>
<rect x="1024" y="124" width="8" height="4" fill="#FFEE55" opacity="0.3"/>
<rect x="1020" y="128" width="8" height="4" fill="#FFEE55" opacity="0.2"/>

<!-- ===================== ATHLETIC TEAM COLOR STRIPS on panel edges ===================== -->
<!-- Left panel right edge (near center column) — blue team accent -->
<rect x="492" y="72" width="4" height="352" fill="#0044BB"/>
<rect x="488" y="72" width="4" height="352" fill="#002E88" opacity="0.6"/>
<!-- Right panel left edge (near center column) — dark team accent -->
<rect x="656" y="72" width="4" height="352" fill="#222244"/>
<rect x="660" y="72" width="4" height="352" fill="#1A1A36" opacity="0.6"/>

<!-- ===================== HAMMER INDICATOR pixels (small dots - bottom row) ===================== -->
<!-- Left panel bottom - small pixel art stone icons (hammer indication area) -->
<rect x="20" y="408" width="8" height="8" fill="#CC1100" opacity="0.7"/>
<rect x="32" y="408" width="8" height="8" fill="#CC1100" opacity="0.7"/>
<rect x="44" y="408" width="8" height="8" fill="#CC1100" opacity="0.5"/>
<rect x="56" y="408" width="8" height="8" fill="#CC1100" opacity="0.5"/>
<!-- Right panel bottom -->
<rect x="1116" y="408" width="8" height="8" fill="#CCAA00" opacity="0.7"/>
<rect x="1104" y="408" width="8" height="8" fill="#CCAA00" opacity="0.7"/>
<rect x="1092" y="408" width="8" height="8" fill="#CCAA00" opacity="0.5"/>
<rect x="1080" y="408" width="8" height="8" fill="#CCAA00" opacity="0.5"/>

<!-- ===================== CORNER PIXEL ART BRACKETS ===================== -->
<!-- Left panel TL bracket -->
<rect x="16" y="80" width="28" height="4" fill="#C8A820"/>
<rect x="16" y="80" width="4" height="28" fill="#C8A820"/>
<rect x="20" y="84" width="20" height="2" fill="#FFDD44"/>
<rect x="20" y="84" width="2" height="20" fill="#FFDD44"/>
<!-- Left panel BL bracket -->
<rect x="16" y="412" width="28" height="4" fill="#C8A820"/>
<rect x="16" y="392" width="4" height="24" fill="#C8A820"/>
<rect x="20" y="410" width="20" height="2" fill="#FFDD44"/>
<rect x="20" y="394" width="2" height="18" fill="#FFDD44"/>
<!-- Right panel TR bracket -->
<rect x="1108" y="80" width="28" height="4" fill="#C8A820"/>
<rect x="1132" y="80" width="4" height="28" fill="#C8A820"/>
<rect x="1112" y="84" width="20" height="2" fill="#FFDD44"/>
<rect x="1132" y="84" width="2" height="20" fill="#FFDD44"/>
<!-- Right panel BR bracket -->
<rect x="1108" y="412" width="28" height="4" fill="#C8A820"/>
<rect x="1132" y="392" width="4" height="24" fill="#C8A820"/>
<rect x="1112" y="410" width="20" height="2" fill="#FFDD44"/>
<rect x="1132" y="394" width="2" height="18" fill="#FFDD44"/>

<!-- ===================== OUTER FRAME CORNER L-BRACKETS ===================== -->
<rect x="8" y="8" width="20" height="4" fill="#FFDD44"/>
<rect x="8" y="8" width="4" height="20" fill="#FFDD44"/>
<rect x="1124" y="8" width="20" height="4" fill="#FFDD44"/>
<rect x="1140" y="8" width="4" height="20" fill="#FFDD44"/>
<rect x="8" y="420" width="20" height="4" fill="#FFDD44"/>
<rect x="8" y="408" width="4" height="16" fill="#FFDD44"/>
<rect x="1124" y="420" width="20" height="4" fill="#FFDD44"/>
<rect x="1140" y="408" width="4" height="16" fill="#FFDD44"/>

<!-- ===================== SCANLINE OVERLAY ===================== -->
<rect x="0" y="0" width="1152" height="432" fill="url(#scan)" opacity="0.6"/>

</svg>
